<svg width="15" height="16" viewBox="0 0 15 16" fill="none" xmlns="http://www.w3.org/2000/svg">
<g clip-path="url(#clip0)">
<path d="M12.8088 5.47998L6.84625 1.10498C6.38056 0.763967 5.82951 0.558598 5.25423 0.511641C4.67894 0.464684 4.10189 0.577975 3.58706 0.83895C3.07223 1.09993 2.63974 1.49839 2.33754 1.99016C2.03534 2.48192 1.87524 3.04778 1.875 3.62498V12.375C1.8751 12.9524 2.03521 13.5186 2.33755 14.0106C2.63989 14.5026 3.07263 14.9011 3.58776 15.1621C4.10289 15.4231 4.68026 15.5362 5.25578 15.4889C5.8313 15.4417 6.38247 15.2359 6.84812 14.8944L12.8106 10.5194C13.2064 10.2291 13.5283 9.8497 13.7501 9.41189C13.972 8.97408 14.0876 8.49016 14.0876 7.99935C14.0876 7.50854 13.972 7.02463 13.7501 6.58681C13.5283 6.149 13.2064 5.7696 12.8106 5.47935L12.8088 5.47998ZM12.0687 9.51123L6.10625 13.8862C5.82688 14.0904 5.49648 14.2132 5.15161 14.2412C4.80674 14.2692 4.46085 14.2012 4.15223 14.0447C3.84361 13.8883 3.5843 13.6495 3.403 13.3548C3.2217 13.0601 3.12549 12.721 3.125 12.375V3.62498C3.12153 3.27832 3.21593 2.93772 3.39736 2.6423C3.57879 2.34689 3.83987 2.10866 4.15062 1.95498C4.41493 1.82053 4.70721 1.7503 5.00375 1.74998C5.40118 1.75149 5.78764 1.88053 6.10625 2.1181L12.0687 6.4931C12.3059 6.66729 12.4988 6.89485 12.6317 7.15739C12.7646 7.41994 12.8339 7.71008 12.8339 8.00435C12.8339 8.29862 12.7646 8.58877 12.6317 8.85131C12.4988 9.11385 12.3059 9.34142 12.0687 9.5156V9.51123Z" fill="#8D0019"/>
</g>
<defs>
<clipPath id="clip0">
<rect width="15" height="15" fill="white" transform="translate(0 0.5)"/>
</clipPath>
</defs>
</svg>
